<svg width="38" height="49" viewBox="0 0 38 49" fill="none" xmlns="http://www.w3.org/2000/svg">
<path fill-rule="evenodd" clip-rule="evenodd" d="M32.9552 31.1227C34.4629 34.1469 35.1394 43.2387 35.4486 46.7031H2.55137C2.86063 43.2195 3.55646 34.1277 5.06409 31.1227C5.2767 30.6824 5.97253 30.2805 6.88098 29.8977C7.0356 33.2664 8.11801 36.7691 9.68362 39.4105C8.67853 40.8461 9.89624 42.8176 11.6551 42.5496C12.7569 42.3773 13.5107 41.3438 13.3367 40.2527C13.1434 39.1043 12.0224 38.3387 10.8627 38.6066C9.37436 36.0992 8.33062 32.6348 8.29196 29.3809C9.16175 29.0938 10.1089 28.8258 11.0173 28.5578C11.2492 28.4812 11.4812 28.4238 11.7131 28.3664C11.9451 29.0746 12.1963 29.8211 12.5056 30.6059C14.1099 34.7977 15.6175 36.5777 18.1882 39.6211C18.4008 39.8699 18.6907 40.0039 19.0193 40.0039C19.3479 40.0039 19.6378 39.8699 19.8505 39.6211C22.1119 36.9223 23.6195 35.1613 25.1272 31.5438C25.591 30.4336 25.9969 29.3234 26.3255 28.3473C26.5575 28.4047 26.7894 28.4813 27.0214 28.5387C28.0071 28.8258 29.0702 29.1129 30.0173 29.4383C29.9593 30.491 29.6887 31.582 29.2828 32.6539C27.3499 32.2902 25.3784 33.1898 24.4313 35.3336C23.1363 38.243 19.5025 42.5879 23.3876 43.9852C24.2767 44.3105 24.7792 42.9707 23.8901 42.6453C23.0203 42.3199 23.001 41.5926 23.3489 40.6738C23.8321 39.3531 25.1078 37.4008 25.765 35.9078C27.3499 32.3668 32.2981 34.1852 31.1963 37.8793C30.7324 39.468 30.4232 41.7457 29.94 43.0664C29.5921 43.9852 29.1089 44.5402 28.2391 44.2148C27.3499 43.8895 26.8474 45.2293 27.7365 45.5547C31.6216 46.9711 31.6796 41.3055 32.588 38.2812C33.2452 36.0418 32.3754 34.1086 30.6551 33.1516C31.0417 32.0988 31.3316 31.027 31.4283 29.9742C32.1821 30.3379 32.762 30.7016 32.9552 31.1227ZM24.9919 6.18242C22.6724 8.23047 19 8.6707 15.9461 7.50313C17.0285 8.01992 18.4008 8.36445 19.8891 8.44102C20.4883 8.46016 21.0682 8.44102 21.6094 8.38359C22.1699 8.30703 22.6724 8.21133 23.1363 8.0582C23.4456 7.9625 23.7548 8.13477 23.8515 8.42188C23.9481 8.72812 23.7742 9.03438 23.4842 9.13008C22.943 9.30234 22.3632 9.43633 21.7253 9.51289C21.1261 9.58945 20.4883 9.60859 19.8311 9.58945C17.9563 9.51289 16.2167 9.01523 14.941 8.28789C14.0905 7.79023 13.4334 7.19687 13.0275 6.52695C12.177 7.36914 11.7325 8.38359 11.4619 9.35977C11.4425 9.58945 11.4232 9.81914 11.4232 10.0488C11.4232 12.8434 12.4476 16.7672 13.9552 19.1023C15.2889 21.1695 17.0285 22.6816 19 22.6816C20.9715 22.6816 22.7111 21.1695 24.0448 19.1023C26.1322 15.8484 27.5626 9.53203 24.9919 6.18242ZM28.2777 12.518C28.7609 12.384 29.2442 12.4031 29.3794 12.9199C29.5727 13.5707 29.5147 14.1641 29.3215 14.7383C29.1282 15.2551 28.3744 15.7336 27.9878 16.1738C27.7945 16.3844 27.3886 16.4609 27.1373 16.4227C26.6734 17.6285 26.1129 18.8152 25.4171 19.9062C23.8128 22.3945 21.648 24.2129 19.0193 24.2129C16.3906 24.2129 14.2258 22.3945 12.6216 19.9062C11.9257 18.8152 11.3652 17.6285 10.9013 16.4227C10.6501 16.4609 10.2248 16.3844 10.0509 16.1738C9.64496 15.7336 8.89115 15.2551 8.71719 14.7383C8.52391 14.1832 8.48525 13.5707 8.65921 12.9199C8.77518 12.4988 9.10376 12.4223 9.49034 12.4605C9.12309 10.8719 8.79451 8.91953 9.14242 7.31172C9.64496 5.01484 10.3794 4.3832 11.6938 3.88555C12.9695 1.53125 15.4049 0 18.7487 0C22.0926 0 25.2431 1.01445 27.234 4.91914C27.3693 5.01484 27.5046 5.11055 27.6592 5.20625C29.3988 6.23984 28.6836 10.757 28.2777 12.518ZM24.7792 25.457C27.7172 26.5863 33.7091 27.4477 35.0427 30.1082C36.9369 33.8789 37.5748 45.2102 38 49H0C0.425229 45.2102 1.10173 33.8598 2.9766 30.1082C4.27162 27.5242 10.2442 26.6055 13.2401 25.457C13.8393 27.5816 15.1536 31.8117 17.0285 34.6828L17.8789 29.668L17.3764 28.4813L18.9613 27.1605L20.5463 28.4813L20.0437 29.668L20.8942 34.6828C22.8077 31.7734 24.238 27.3902 24.7792 25.457Z" fill="#948DAA"/>
</svg>
