<svg width="100%" height="100%" viewBox="-16 0 369 206" fill="none" xmlns="http://www.w3.org/2000/svg">
<g opacity="0.1">
<path d="M200.5 206C187.521 206 177 195.479 177 182.5V159H224V182.5C224 195.479 213.479 206 200.5 206Z" fill="#18CEBB"/>
<path d="M177 112V88.5C177 75.5213 187.521 65 200.5 65C213.479 65 224 75.5213 224 88.5V112H177Z" fill="#FFC611"/>
<path d="M224 159V112H247.5C260.479 112 271 122.521 271 135.5C271 148.479 260.479 159 247.5 159H224Z" fill="#35BEE0"/>
<path d="M153.5 159C140.521 159 130 148.479 130 135.5C130 122.521 140.521 112 153.5 112H177V159H153.5Z" fill="#FF6EA1"/>
<rect x="177" y="159" width="47" height="47" transform="rotate(-90 177 159)" fill="#59499E"/>
</g>
<g opacity="0.3">
<path d="M65.5001 0C75.9015 0 84.3334 8.43197 84.3334 18.8333V37.6667L46.6668 37.6667L46.6668 18.8333C46.6668 8.43197 55.0987 0 65.5001 0Z" fill="#18CEBB"/>
<path d="M84.3334 75.3334V94.1667C84.3334 104.568 75.9015 113 65.5001 113C55.0987 113 46.6668 104.568 46.6668 94.1667V75.3334H84.3334Z" fill="#FFC611"/>
<path d="M46.6666 37.6666L46.6666 75.3333H27.8332C17.4319 75.3333 8.9999 66.9013 8.9999 56.4999C8.9999 46.0986 17.4319 37.6666 27.8332 37.6666H46.6666Z" fill="#35BEE0"/>
<path d="M103.167 37.6666C113.568 37.6666 122 46.0986 122 56.4999C122 66.9013 113.568 75.3333 103.167 75.3333H84.3333V37.6666L103.167 37.6666Z" fill="#FF6EA1"/>
<rect x="84.3334" y="37.6666" width="37.6667" height="37.6667" transform="rotate(90 84.3334 37.6666)" fill="#59499E"/>
</g>
<g opacity="0.9">
<path d="M297 92.5C297 88.8181 299.985 85.8333 303.667 85.8333H310.333V99.1666H303.667C299.985 99.1666 297 96.1819 297 92.5Z" fill="#18CEBB"/>
<path d="M323.667 85.8333H330.333C334.015 85.8333 337 88.8181 337 92.5C337 96.1819 334.015 99.1666 330.333 99.1666H323.667V85.8333Z" fill="#FFC611"/>
<path d="M310.333 99.1667H323.667V105.833C323.667 109.515 320.682 112.5 317 112.5C313.318 112.5 310.333 109.515 310.333 105.833V99.1667Z" fill="#35BEE0"/>
<path d="M310.333 79.1667C310.333 75.4848 313.318 72.5 317 72.5C320.682 72.5 323.667 75.4848 323.667 79.1667V85.8333H310.333V79.1667Z" fill="#FF6EA1"/>
<rect x="310.333" y="85.8333" width="13.3333" height="13.3333" fill="#59499E"/>
</g>
<g opacity="0.2">
<path d="M0 153C0 149.318 2.98477 146.333 6.66667 146.333H13.3333L13.3333 159.667H6.66667C2.98477 159.667 0 156.682 0 153Z" fill="#18CEBB"/>
<path d="M26.6667 146.333H33.3334C37.0153 146.333 40 149.318 40 153C40 156.682 37.0153 159.667 33.3334 159.667H26.6667L26.6667 146.333Z" fill="#FFC611"/>
<path d="M13.3333 159.667H26.6666V166.333C26.6666 170.015 23.6819 173 20 173C16.3181 173 13.3333 170.015 13.3333 166.333L13.3333 159.667Z" fill="#35BEE0"/>
<path d="M13.3333 139.667C13.3333 135.985 16.3181 133 20 133C23.6819 133 26.6666 135.985 26.6666 139.667V146.333H13.3333V139.667Z" fill="#FF6EA1"/>
<rect x="13.3333" y="146.333" width="13.3333" height="13.3333" fill="#59499E"/>
</g>
<g opacity="0.5">
<path d="M204.5 25.5C204.5 22.8306 206.664 20.6667 209.333 20.6667L214.167 20.6667V30.3333H209.333C206.664 30.3333 204.5 28.1694 204.5 25.5Z" fill="#18CEBB"/>
<path d="M223.833 20.6667H228.667C231.336 20.6667 233.5 22.8306 233.5 25.5C233.5 28.1694 231.336 30.3333 228.667 30.3333H223.833V20.6667Z" fill="#FFC611"/>
<path d="M214.167 30.3333L223.833 30.3333V35.1667C223.833 37.8361 221.669 40 219 40C216.331 40 214.167 37.8361 214.167 35.1667V30.3333Z" fill="#35BEE0"/>
<path d="M214.167 15.8333C214.167 13.164 216.331 11 219 11C221.669 11 223.833 13.164 223.833 15.8333V20.6667H214.167V15.8333Z" fill="#FF6EA1"/>
<rect x="214.167" y="20.6667" width="9.66667" height="9.66667" fill="#59499E"/>
</g>
</svg>
