<svg width="14" height="14" viewBox="0 0 14 14" fill="none" xmlns="http://www.w3.org/2000/svg">
<path d="M11.2937 9.36692C11.2037 9.37451 11.115 9.37859 11.0214 9.37859C10.9279 9.37859 10.8391 9.37451 10.7492 9.36692C10.5853 9.35307 10.4409 9.47194 10.4268 9.63243C10.426 9.64113 10.4257 9.64986 10.4257 9.65859V9.77083C10.4257 11.4622 9.02537 12.8333 7.29799 12.8333C5.5706 12.8333 4.17028 11.4622 4.17028 9.77083V8.11417C5.88801 7.82841 7.14581 6.3727 7.14905 4.66667V2.91667C7.14627 1.88091 6.44549 0.971337 5.42912 0.684256C5.38925 0.673063 5.36179 0.637363 5.3618 0.596756V0.583335C5.3618 0.261169 5.09507 1.98679e-06 4.76604 1.98679e-06C4.43702 1.98679e-06 4.17029 0.261169 4.17029 0.583335V2.04167C4.17029 2.36383 4.43702 2.625 4.76604 2.625C5.09507 2.625 5.3618 2.36383 5.3618 2.04167C5.36169 2.01523 5.37694 1.99103 5.40112 1.97925C5.4252 1.9675 5.45397 1.96998 5.47559 1.98567C5.778 2.20355 5.95685 2.54904 5.95754 2.91667V4.66667C5.95754 5.95533 4.89063 7 3.57452 7C2.25842 7 1.19151 5.95533 1.19151 4.66667V2.91667C1.19151 2.54821 1.37051 2.20152 1.67364 1.98321C1.69525 1.96752 1.72403 1.96504 1.74811 1.97679C1.77306 1.989 1.78838 2.01438 1.78726 2.04167C1.78726 2.36383 2.05399 2.625 2.38302 2.625C2.71204 2.625 2.97877 2.36383 2.97877 2.04167V0.583333C2.97877 0.261167 2.71204 0 2.38302 0C2.05399 0 1.78726 0.261167 1.78726 0.583333V0.59675C1.78748 0.637423 1.75993 0.673229 1.71994 0.68425C0.703573 0.971322 0.00278813 1.88091 0 2.91667V4.66666C0.00323962 6.37269 1.26104 7.82842 2.97878 8.11417V9.77083C2.97878 12.1065 4.91256 14 7.29799 14C9.68343 14 11.6172 12.1065 11.6172 9.77083V9.65801C11.6178 9.49693 11.4849 9.36586 11.3204 9.36526C11.3115 9.36523 11.3026 9.36559 11.2937 9.36634L11.2937 9.36692Z" fill="#848D9F"/>
<path d="M11.0213 2.47937C9.37616 2.47937 8.04252 3.78521 8.04252 5.39604C8.04252 7.00686 9.37616 8.3127 11.0213 8.3127C12.6664 8.3127 14.0001 7.00686 14.0001 5.39604V5.39604C13.9981 3.78601 12.6656 2.4813 11.0213 2.47937L11.0213 2.47937ZM11.0213 7.14604C10.0342 7.14604 9.23403 6.36253 9.23403 5.39604C9.23403 4.42954 10.0342 3.64604 11.0213 3.64604C12.0084 3.64604 12.8086 4.42954 12.8086 5.39604C12.8086 6.36253 12.0084 7.14604 11.0213 7.14604Z" fill="#848D9F"/>
<path d="M11.6534 4.77718C12.0024 5.11889 12.0024 5.6729 11.6534 6.01461C11.3044 6.35632 10.7386 6.35632 10.3896 6.01461C10.0406 5.67291 10.0406 5.11889 10.3896 4.77718C10.7386 4.43547 11.3044 4.43547 11.6534 4.77718Z" fill="#848D9F"/>
</svg>
