<svg width="14" height="14" viewBox="0 0 14 14" fill="none" xmlns="http://www.w3.org/2000/svg">
<path d="M7.0829 4.5155e-10C4.7169 4.5155e-10 2.79248 1.92308 2.79248 4.28671C2.79248 6.55536 6.67398 12.4545 6.83965 12.704C6.89331 12.7861 6.9849 12.8351 7.0829 12.8351C7.1809 12.8351 7.2719 12.7861 7.32615 12.704C7.49181 12.4545 11.3739 6.55536 11.3739 4.28671C11.3739 1.92366 9.4489 4.5155e-10 7.0829 4.5155e-10ZM6.9989 6.42424C5.71206 6.42424 4.66556 5.37879 4.66556 4.09324C4.66556 2.80769 5.71206 1.76224 6.9989 1.76224C8.28573 1.76224 9.33223 2.80769 9.33223 4.09324C9.33223 5.37879 8.28573 6.42424 6.9989 6.42424Z" fill="#848D9F"/>
<path d="M8.92267 11.1387C8.34108 12.1067 7.86567 12.8334 7.73033 13.0391C7.56817 13.2838 7.294 13.4319 7 13.4319C6.706 13.4319 6.43183 13.2838 6.26967 13.0391C6.13433 12.8334 5.65892 12.1067 5.07733 11.1387C3.95908 11.1976 0 11.4243 0 12.5432C0 13.8829 5.64258 14 7 14C8.34983 14 14 13.8835 14 12.5432C14 11.4243 10.0368 11.1941 8.92267 11.1387Z" fill="#848D9F"/>
</svg>
