<svg width="14" height="14" viewBox="0 0 14 14" fill="none" xmlns="http://www.w3.org/2000/svg">
<path d="M3.04348 0C2.7106 0 2.43478 0.264323 2.43478 0.583333V1.16667H0.608696C0.255605 1.16667 0 1.41162 0 1.75V3.79167H14V1.75C14 1.41162 13.7444 1.16667 13.3913 1.16667H11.5652V0.583333C11.5652 0.264323 11.2894 0 10.9565 0H10.3478C10.0149 0 9.73913 0.264323 9.73913 0.583333V1.16667H4.26087V0.583333C4.26087 0.264323 3.98505 0 3.65217 0H3.04348ZM3.04348 0.583333H3.65217V2.33333H3.04348V0.583333ZM10.3478 0.583333H10.9565V2.33333H10.3478V0.583333ZM0 4.375V13.4167C0 13.755 0.255605 14 0.608696 14H13.3913C13.7444 14 14 13.755 14 13.4167V4.375H0Z" fill="#848D9F"/>
<ellipse cx="2.6923" cy="7.5" rx="0.538462" ry="0.5" fill="#848D9F" stroke="white"/>
<ellipse cx="6.99999" cy="7.5" rx="0.538462" ry="0.5" fill="#848D9F" stroke="white"/>
<ellipse cx="11.3077" cy="7.5" rx="0.538462" ry="0.5" fill="#848D9F" stroke="white"/>
<ellipse cx="2.6923" cy="11.5" rx="0.538462" ry="0.5" fill="#848D9F" stroke="white"/>
<ellipse cx="6.99999" cy="11.5" rx="0.538462" ry="0.5" fill="#848D9F" stroke="white"/>
<ellipse cx="11.3077" cy="11.5" rx="0.538462" ry="0.5" fill="#848D9F" stroke="white"/>
</svg>
