<svg width="9" height="14" viewBox="0 0 9 14" fill="none" xmlns="http://www.w3.org/2000/svg">
<path d="M8.5 7.61763V6.44116C7.36153 6.44116 6.37692 5.85293 5.82307 4.99997L5.23845 4.0588C5.02308 3.70589 4.62307 3.5 4.19231 3.5C4.03848 3.5 3.88461 3.52942 3.73077 3.58824L0.5 4.85295V7.61766H1.73078V5.64707L2.8077 5.20589L1.11538 13.5H2.40769L3.4846 8.79411L4.80769 9.97059V13.5H6.03847V9.05882L4.77694 7.85295L5.14617 6.08824C5.94616 7.02941 7.14616 7.61763 8.5 7.61763Z" fill="#848D9F"/>
<path d="M4.75 3C5.4375 3 6 2.4375 6 1.74999C5.99997 1.0625 5.43748 0.5 4.75 0.5C4.06252 0.5 3.5 1.0625 3.5 1.75001C3.5 2.43753 4.0625 3 4.75 3Z" fill="#848D9F"/>
</svg>
